<svg xmlns="http://www.w3.org/2000/svg" viewBox="0 0 200 240">
  <rect width="200" height="240" fill="#1677ff"/>
  <rect x="16" y="16" width="168" height="168" fill="#fff"/>
  <rect x="28" y="28" width="28" height="28" fill="#111"/>
  <rect x="144" y="28" width="28" height="28" fill="#111"/>
  <rect x="28" y="144" width="28" height="28" fill="#111"/>
  <rect x="36" y="36" width="12" height="12" fill="#fff"/>
  <rect x="152" y="36" width="12" height="12" fill="#fff"/>
  <rect x="36" y="152" width="12" height="12" fill="#fff"/>
  <g fill="#111">
    <rect x="76" y="44" width="8" height="8"/>
    <rect x="100" y="52" width="8" height="8"/>
    <rect x="84" y="76" width="8" height="8"/>
    <rect x="124" y="84" width="8" height="8"/>
    <rect x="92" y="100" width="16" height="16"/>
    <rect x="60" y="116" width="8" height="8"/>
    <rect x="132" y="124" width="8" height="8"/>
    <rect x="88" y="140" width="8" height="8"/>
  </g>
  <text x="100" y="214" text-anchor="middle" fill="#fff" font-size="16" font-family="sans-serif">支付宝</text>
</svg>
